<?xml version="1.0" encoding="utf-8"?>
<!-- Generator: Adobe Illustrator 19.0.0, SVG Export Plug-In . SVG Version: 6.00 Build 0)  -->
<svg version="1.1" id="Capa_1" xmlns="http://www.w3.org/2000/svg" xmlns:xlink="http://www.w3.org/1999/xlink" x="0px" y="0px"
	 viewBox="0 0 63 63" style="enable-background:new 0 0 63 63;" xml:space="preserve">
<style type="text/css">
	.st0{fill:#12AFAF;}
	.st1{fill:#FFFFFF;}
</style>
<circle id="XMLID_361_" class="st0" cx="31.5" cy="31.5" r="31.5"/>
<path id="XMLID_362_" class="st1" d="M13.9,33.2v-3.3c0-0.1-0.1-0.3-0.1-0.4l0.2-0.2l2.8-0.4l0.6-1.4l-1.6-2.1
	c-0.1-0.1-0.1-0.3-0.1-0.4c0-0.1,0-0.3,0.1-0.4l1.5-1.7c0.4-0.5,0.8-0.2,1.4-1.2h0.4l2.1,1.7l1.4-0.5c0.1-1,0.2-1.8,0.4-2.8
	c0-0.3,0.2-0.5,0.5-0.5h3.4l0.4,0.2c0.1,0.1,0.2,0.2,0.2,0.4l0.4,2.8l1.4,0.4l2.1-1.8h0.7c1.7,2,2.6,2.6,2.6,3.1
	c0,0.1,0,0.4-0.1,0.5l-0.8,1L33,27.3l0.6,1.5l2.7,0.4l0.4,0.2l0.2,0.4v3.3l-0.2,0.4l-0.4,0.2l-2.8,0.4c-0.2,0.5-0.4,1-0.6,1.4
	l1.6,2.1c0.1,0.1,0.1,0.3,0.1,0.4c0,0.1,0,0.3-0.1,0.4L33,40.3c-0.4,0.5-0.8,0.3-1.4,1.3h-0.4l-2.1-1.8l-1.4,0.5
	c-0.1,1.3-0.3,2.3-0.4,2.9c-0.1,0.3-0.2,0.5-0.5,0.5h-3.3l-0.4-0.4l-0.2-0.4l-0.4-2.8l-1.4-0.3L19,41.6h-0.7c-1.7-2-2.6-2.8-2.6-3.2
	c0-0.1,0-0.4,0.1-0.5l0.7-1l0.8-1.1c-0.2-0.5-0.4-1-0.6-1.5L14,33.9l-0.1-0.2C13.8,33.5,13.9,33.4,13.9,33.2z M36.9,24.2
	c-2-0.2-3-0.4-3-0.6v-2.5c0-0.2,1-0.4,2.8-0.6l0.7-0.6c-0.4-0.8-0.8-2.2-0.9-2.2h0.1l0.6-0.7l1.1-0.7l0.5-0.4
	c0.3,0.2,0.6,0.3,0.8,0.7l0.9,1.1h1.1l1.7-2h0.1l2.2,1h0.1c-0.2,1-0.5,1.9-0.9,2.7l0.5,1c1.8,0.2,2.6,0.5,2.6,0.7v2.5
	c0,0.2-0.8,0.4-2.6,0.6l-0.6,1c0.4,0.8,0.7,1.6,0.9,2.6h-0.1l-2.2,1.2c-0.3-0.2-0.6-0.6-0.8-0.9l-0.9-1.3h-1.1l-0.9,1.3
	c-0.2,0.3-0.5,0.7-0.8,0.9l-2.2-1.2h-0.1c0.1-1,0.4-1.5,0.8-2.3l-0.6-0.7h0.1V24.2z M36.9,42.6c-2-0.2-2.9-0.4-2.9-0.6v-2.5
	c0-0.2,1-0.4,2.8-0.6l0.7-0.9c-0.4-0.8-0.8-1.4-0.9-2.4h0.1l0.6-0.5l1.1-0.6l0.5-0.3c0.3,0.2,0.6,0.7,0.8,1l0.9,1.4h1.1l1.7-2h0.1
	l2.2,1h0.1c-0.2,1-0.5,1.6-0.9,2.4l0.5,0.8c1.8,0.2,2.6,0.3,2.6,0.5v2.5c0,0.2-0.8,0.4-2.6,0.6l-0.6,0.8c0.4,0.8,0.7,1.4,0.9,2.4
	h-0.1l-2.2,1.4c-0.3-0.2-0.6-0.2-0.8-0.5l-0.9-0.9h-1.1l-0.9,1c-0.2,0.3-0.5,0.3-0.8,0.6l-2.2-1.6h-0.1c0.1-1,0.4-1.5,0.8-2.3
	L36.9,42.6L36.9,42.6L36.9,42.6z M38.9,22.4c0,1.5,1.3,2.6,2.8,2.3c0.8-0.2,1.4-0.8,1.6-1.6c0.4-1.5-0.7-2.9-2.2-3
	c-0.6,0-1.2,0.2-1.6,0.6C39.2,21.2,38.9,21.7,38.9,22.4L38.9,22.4L38.9,22.4z M38.9,40.8c0,1.5,1.3,2.6,2.8,2.3
	c0.8-0.2,1.4-0.8,1.6-1.6c0.4-1.5-0.7-2.9-2.2-3c-0.6,0-1.2,0.2-1.6,0.6C39.2,39.6,38.9,40.1,38.9,40.8L38.9,40.8L38.9,40.8z"/>
<circle id="XMLID_386_" class="st0" cx="25.6" cy="31.9" r="4.2"/>
</svg>
