<?xml version="1.0" encoding="utf-8"?>
<!-- Generator: Adobe Illustrator 19.0.0, SVG Export Plug-In . SVG Version: 6.00 Build 0)  -->
<svg version="1.1" id="Capa_1" xmlns="http://www.w3.org/2000/svg" xmlns:xlink="http://www.w3.org/1999/xlink" x="0px" y="0px"
	 viewBox="0 0 95 95" style="enable-background:new 0 0 95 95;" xml:space="preserve">
<style type="text/css">
	.st0{fill:#009500;}
	.st1{fill:#FFFFFF;}
	.st2{font-family:'FontAwesome';}
	.st3{font-size:41.1564px;}
</style>
<g id="fa-briefcase">
	<circle id="XMLID_19_" class="st0" cx="-125.4" cy="46.8" r="45"/>
	<g id="fa-angle-down">
		<path id="XMLID_14_" class="st1" d="M-105.8,41.9h-37.9c-0.8,0-1.4-0.6-1.4-1.4v-5.6c0-2.7,2.2-4.9,4.9-4.9h4.9
			c0.8,0,1.4-0.6,1.4-1.4v-0.7c0-1.9,1.6-3.5,3.5-3.5h9.8c1.9,0,3.5,1.6,3.5,3.5v0.7c0,0.8,0.6,1.4,1.4,1.4h4.9
			c2.7,0,4.9,2.2,4.9,4.9v7H-105.8z M-105.8,54.5c0,1.9-1.6,3.5-3.5,3.5l0,0h-32.3c-1.9,0-3.5-1.6-3.5-3.5l0,0v-9.1
			c0-0.8,0.6-1.4,1.4-1.4h11.9c0.8,0,1.4,0.6,1.4,1.4v2.1c0,0.8,0.6,1.4,1.4,1.4l0,0h7c0.8,0,1.4-0.6,1.4-1.4l0,0v-2.1
			c0-0.8,0.6-1.4,1.4-1.4h11.9c0.8,0,1.4,0.6,1.4,1.4v9.1H-105.8z M-119.8,28.6L-119.8,28.6c0-0.8-0.6-1.4-1.4-1.4h-8.4
			c-0.8,0-1.4,0.6-1.4,1.4v0c0,0.8,0.6,1.4,1.4,1.4h8.4C-120.4,30-119.8,29.4-119.8,28.6z M-124,46.8h-2.8c-0.8,0-1.4-0.6-1.4-1.4v0
			c0-0.8,0.6-1.4,1.4-1.4h2.8c0.8,0,1.4,0.6,1.4,1.4v0C-122.6,46.2-123.2,46.8-124,46.8z"/>
	</g>
	<circle id="XMLID_13_" class="st0" cx="47.5" cy="47.5" r="45"/>
	<circle id="XMLID_12_" class="st0" cx="-113.9" cy="198.9" r="45"/>
	<circle id="XMLID_11_" class="st0" cx="49.1" cy="198.9" r="45"/>
	<circle id="XMLID_10_" class="st0" cx="-113.9" cy="344.9" r="45"/>
	<circle id="XMLID_9_" class="st0" cx="49.1" cy="344.9" r="45"/>
	<text id="XMLID_7_" transform="matrix(0.9918 0 0 1 28.5481 60.3774)" class="st1 st2 st3"></text>
	<text id="XMLID_6_" transform="matrix(1 0 0 1 -138 212.8633)" class="st1 st2" style="font-size:48px;"></text>
	<text id="XMLID_5_" transform="matrix(1 0 0 1 26.8147 216.8633)" class="st1 st2" style="font-size:48px;"></text>
</g>
<text id="XMLID_3_" transform="matrix(1 0 0 1 -137.9497 356.2734)" class="st1 st2" style="font-size:48px;"></text>
<text id="XMLID_2_" transform="matrix(1 0 0 1 23.3853 362.2734)" class="st1 st2" style="font-size:48px;"></text>
</svg>
